# xmcd
#
# Track frame offsets: 
#        150
#        12786
#        23769
#        96743
#        110157
#        125117
#        141316
#        152395
#        166663
#        185691
#        197485
#        207590
#        220197
#        229574
#        240505
#        250647
#        263128
#        273640
#        284744
#        296896
#
# Disc length: 4116 seconds
#
# Revision: 1
# Processed by: cddbd v1.5.2PL0 Copyright (c) Steve Scherf et al.
# Submitted via: ExactAudioCopyFreeDBPlugin 1.0
#
DISCID=33101214
DTITLE=The Staple Singers - Faith and Grace:  A Family Journey, 1953-197
DTITLE=6
DYEAR=2015
DGENRE=Soul
TTITLE0=Will the Circle Be Unbroken
TTITLE1=Don't Knock
TTITLE2=Medley:  Too Close - I'm on My Way Home - I'm Coming Home - He
TTITLE2='s Alright (live)
TTITLE3=Swing Low
TTITLE4=Calling Me
TTITLE5=Stand By Me
TTITLE6=Hammer and Nails
TTITLE7=Gloryland
TTITLE8=Hear My Call, Here
TTITLE9=Nobody Knows the Trouble I've Seen
TTITLE10=New-Born Soul
TTITLE11=Dying Man's Plea
TTITLE12=Great Day
TTITLE13=There Was a Star
TTITLE14=Use What You Got
TTITLE15=Let That Liar Alone
TTITLE16=I Can't Help from Cryin' Sometime
TTITLE17=Blowin' in the Wind
TTITLE18=This Land is Your Land
TTITLE19=I Know I've Been Changed
EXTD=
EXTT0=
EXTT1=
EXTT2=
EXTT3=
EXTT4=
EXTT5=
EXTT6=
EXTT7=
EXTT8=
EXTT9=
EXTT10=
EXTT11=
EXTT12=
EXTT13=
EXTT14=
EXTT15=
EXTT16=
EXTT17=
EXTT18=
EXTT19=
PLAYORDER=
